<?xml version="1.0" encoding="utf-8"?>
<!-- Generator: Adobe Illustrator 19.0.1, SVG Export Plug-In . SVG Version: 6.00 Build 0)  -->
<svg version="1.1" id="лого_пегас" xmlns="http://www.w3.org/2000/svg" xmlns:xlink="http://www.w3.org/1999/xlink"
	 x="0px" y="0px" viewBox="346 483.1 941.8 358.4" style="enable-background:new 346 483.1 941.8 358.4;" xml:space="preserve" fill="url(#grad)">
<style type="text/css">
	.st0{enable-background:new    ;}
</style>
	<linearGradient id="grad" x1="0%" y1="0%" x2="170%" y2="100%" gradientUnits="userSpaceOnUse">
		<stop offset="0%" stop-color="#181410" />
		<stop offset="100%" stop-color="#8e7460" />
	</linearGradient>
<path d="M924.5,713.5c-7-4.9-3.5-24-2.6-28.8c1-5.6,2.3-9.1,0.3-12.9c-2.2-4.3-6.9-5.9-7.9-6.3c-7-2.4-14.6,1-17.8,2.5
	c-0.3,0.1-0.6,0.3-0.7,0.3c-13.2,6.4-16.3,18.9-23.4,17.9c-3.3-0.5-2.3-3.1-7.8-6.4c0,0-10.2-6.1-29.5-2.4c-0.1,0-1.8,0.4-1.8,0.3
	c0,0,0,0,0.1,0c1-0.3,3.6-1.3,5.6-4c1.8-2.3,2.2-4.7,2.3-5.7c-2.5,4.5-6.5,7.1-10.4,6.7c-2.7-0.3-5.8-2.2-5.8-4.1
	c0-1.6,2.3-2.2,6-5.7c1.6-1.5,2.9-3,3.7-4c0.5,0.2,5.4,1.5,9.5-1.6c2.9-2.2,3.7-5.2,3.9-6.1c-0.3,0.5-1.9,3-5.2,3.9
	c-3.5,0.9-6.2-0.6-6.7-0.9c1.8-0.1,8.6-0.5,14-5.9c3-3,4.3-6.2,4.9-8.1c-1,1.5-3.2,4.5-7.1,6.6c-2.8,1.5-5.4,1.9-7,2.1
	c2.8-2.3,4.5-4.5,5.6-6.2c2.4-3.7,2.6-6.4,5-7.6c2-1,4.2-0.5,5.9,0.2c-1.6-1.4-3.7-2.7-6.2-3c-5.4-0.8-7.7,3.1-14.9,3.1
	c-3.6,0-5.9-1-7.4-2.3c-0.4-0.3-0.7-0.6-0.9-0.8c0,0,10.8,3.2,17.3-1.3c2.1-1.5,3.2-3.4,3.8-4.6c-1.5,1.2-3.4,1.3-4.9,0.5
	c-1.5-0.9-1.8-2.6-1.8-2.9l0.6-1.5c0.2-0.7,0.4-1.8,0.4-3.1c-0.1-4.8-3.8-8.1-5.7-9.9c-5.2-4.8-17.4-7.9-33-7.4
	c1.2-0.5,2.5-0.9,3.9-1.3c2.7-0.6,6.9-1.3,12.8-1.2c-2-0.6-4.7-1.2-8-1.2c-4,0-7.2,0.7-9.4,1.5c0.4-0.5,1.1-1.3,1.8-1.9
	c1-0.8,1.9-1.4,2.7-1.7c0,0-7.7,1.2-11.5,2.3c-2.8,0.8-4.2,1.4-4.7,0.8c-0.4-0.5,0.3-1.6,0.9-2.8c0.8-1.3,1.6-2.3,2.2-2.9
	c-3,0.7-5.3,1.6-6.8,2.3c-3.4,1.4-4.5,2.4-7.1,2.5c-3.1,0.1-4.8-1.2-5.2-1.5c-0.5-0.4-1.2-1-1.4-2c-0.3-1.5,0.9-2.8,1.1-3
	c-0.5,0-1.6,0.1-2.5,0.9c-1.4,1.2-1.6,3.6-0.5,5.8c-0.4-0.1-2.7-0.8-3.3-2.7c-0.7-2.2,1.1-5.4,4.9-6.5c-0.7-0.1-3.7-0.2-6.4,2
	c-2,1.6-2.8,3.7-3,4.5c-1.2-0.5-3.3-1.7-5-4.1c-3.2-4.5-2.1-9.6-1.9-10.5c-1,3.2-1.7,7.1-0.1,10.6c2.3,5.2,8.3,8.3,8.3,8.3
	c-0.9,0-1.9-0.2-3.1-0.5c-3.3-1-5.2-3.2-6.1-4.3c1.3,2.9,2.9,4.3,4.2,5.1c2.3,1.4,5.2,1.7,5.2,2.6c0,0.3-0.4,0.6-0.5,0.6
	c-2,1.3-5.4,6.3-12.2,16.2c-2.5,3.6-2.5,4-4.4,6.5c-1.5,1.9-3.4,4.2-5.3,6.4c-3.6,4.3-4.8,5.5-4.4,7c0.4,1.4,1.7,1.3,2.3,3.3
	c0.6,1.9-0.3,2.7,0.4,4.1c0.8,1.9,3.4,3.3,5.3,2.8c1.2-0.3,1.4-1.1,2.6-1c1.8,0.1,2.4,0.2,2.4,0.2c0.4,0.1,0.8,0,1-0.3
	c2-3,4-4.2,5.5-4.7c1.7-0.6,2.2-0.1,5.8-0.6c1.6-0.2,4.2-0.6,7.2-1.6c1.4-0.5,3.3-1.1,5.3-2.2c0.6-0.3,1.3,0.2,1.2,0.9
	c-1.2,7.7-3.1,13.5-4.6,17.5c-2.9,7.5-5.3,10.3-9.9,20.6c-0.6,1.3-4.2,9.5-5.9,15.1c-1.9,6.4-4.1,18.9,2.4,37.5
	c0.2,0.5-0.1,1-0.6,1.1c-0.6,0.1-1.4,0.3-2.2,0.6c-4.6,1.5-5.8,4.1-9.8,6.7c-4,2.6-8.1,3.5-10.1,4c-3,0.7-5.4,0.8-8.8,2.4
	c-1.7,0.8-2.9,1.7-3.8,2.3c-0.7,0.5-1.6,1.3-2.5,2.5c-0.6,0.8-1.8,2.7-2.1,6.1c-0.4,4.8,1.3,8.8,2.3,11c4.4,10.8,2.3,11.2,5.4,17.1
	c1.9,3.7,6,10.1,15.4,15.5c0.1,0.1,0.2,0.1,0.3,0.1c0.4,0.1,1.4,0.1,2.1-0.5c0.4-0.3,0.6-0.6,0.7-0.9c0.1-1.1,0.2-2.2,0.3-3.3
	c0.1-1.8,0.2-3.6,0.3-5.3c0-0.1,0-0.2,0-0.3c-1.2-3.8-2.8-5.1-4.1-5.5c-1.7-0.5-3.2,0.2-5.1-1c-0.3-0.2-1.2-0.6-1.8-2
	c-1.3-2.9-1.6-5.5-2.1-8.9c-0.3-1.7-0.9-4.2-2.5-7.2c0-0.1-0.1-0.1-0.1-0.2c-0.2-0.9-0.3-2-0.3-3.2c0-1.5,0.3-2.8,0.5-3.8
	c0-0.1,0.1-0.2,0.1-0.2c0.3-0.5,0.9-1.3,1.8-1.9c1.2-0.9,2.6-1.1,3.1-1.2c3-0.6,4.5-0.9,6.9-0.8c3.7,0.1,4.9,0.9,10.4,1.3
	c0.6,0,1.5,0.2,2.6,0.1c1.9-0.1,3.2-0.7,5-0.7c3.1-0.1,6.1,0.3,9.5,0.1c0.1,0,0.2,0,0.2,0c2.4-0.7,3.4-1.9,4.7-3.4l0,0l2.5-3.3
	c0.2-0.3,0.7-0.4,1-0.3l4.3,1.9c0.2,0.1,0.4,0.2,0.6,0.2l4.2,1.4c0.2,0.1,0.3,0.2,0.4,0.3c0.1,0.2,0.1,0.5,0.1,0.5
	c1,6.4,0.8,11.6,0.4,15c-0.3,2.8-1.2,8.6-3.3,15.4c-1.5,5-3.2,8.8-2.4,13.2c0.1,0.7,0.5,2.2,0.6,4.3c0,0.6,0.2,3.2-0.1,6.5
	c-0.7,6.6-3.2,12.3-4.1,14.4c-0.9,1.9-2.4,4.5-5.4,9.6c-1.4,2.4-2.5,4.3-3.3,5.6c-0.3,1.1-0.1,2.1,0.6,2.7c0.1,0.1,0.4,0.3,0.7,0.3
	c4.8,0,8.4-0.1,9.9-0.2c0.1,0,0.7-0.1,1.4-0.3c0.5-0.2,1.9-0.7,2.1-1.7c0.1-0.3,0-0.5,0.2-1c0.1-0.3,0.3-0.6,0.4-0.7
	c0.1-0.1,0.1-0.2,0.2-0.3s0.3-0.1,0.3-0.1c1.1,0,2.6,0,4.2-0.4c1.1-0.2,2.1-0.5,2.9-0.9c0.1,0,0.2-0.1,0.3-0.1
	c0.1-0.1,0.2-0.2,0.2-0.3c0.2-1.1,0.3-2.7,0.2-4.8c-0.1-2.5-0.5-2.9-0.1-3.9c0.8-2.1,3.1-1.4,5.6-4c1.4-1.5,2.1-3.3,2.4-4.2
	c0.5-1.4,0.5-2.1,0.9-3.7c0.1-0.5,0.8-3.7,2.5-6.9c0.9-1.7,1.9-3,3.9-5.6c1.3-1.7,2.6-3.2,4.4-5.2c1.6-1.8,2.9-3.9,4.4-5.8
	c0.2-0.3,0.5-1.1,1-2.1c0,0,0.8-9.2,1.8-13.9c0.3-1.3,1.2-5.1,6.8-14.7c1.8-3.1,4.4-7.3,7.7-12.2c0-0.1,0.1-0.1,0.1-0.2
	c0.1-0.1,0.1-0.1,0.2-0.2c3.1-1.6,6.6-3.7,10.3-6.5c3.8-2.9,6.8-5.8,9.1-8.4c0.2-0.2,0.4-0.2,0.7-0.2c0.4,0.1,0.5,0.4,0.6,0.4
	c1,2.2,2.8,5.4,5.3,9.1c4.5,6.3,6.7,6.9,10.1,12.6c3.2,5.4,1.7,5.6,5.1,10.8c2.3,3.6,4.4,5.5,5.7,9.6c0.7,2.4,0.9,4.5,1,5.9
	c0,0,0,0.1,0.1,0.1c5.2,8.5,5.9,9.9,5.9,9.9c2,4.5,2.3,8.3,2.6,13.8c0.5,7.2-0.6,8.7,0.6,14.6c0.6,3.1,1.7,6.5,4.7,8.6
	c0.8,0.6,1.5,0.9,2.1,1.2c0.9-0.3,2.5-0.9,3.8-2.4c1.8-2.1,1.9-4.5,1.9-5.2c0.2-4.8-3.5-6.2-6.1-13.3c-0.6-1.7-0.8-3-1.3-5.7
	c-0.8-5.1-0.3-6.5-0.8-13.1c-0.4-4.3-0.7-4.4-0.9-8.2c-0.3-4-0.1-7.3,0-9.5c0,0-2.1-2.4-3.9-5.5c0,0-0.9-1.5-1.5-3.2
	c-2.4-6-2.4-10.9-2.7-18.8c-0.3-9-0.8-16.8-0.9-19c-0.6-7.4-2.8-18.1-10.6-31c5.2,1.2,7.8,0.2,9.2-1c1.8-1.6,1.9-3.3,4.3-4.5
	c1.9-0.9,4.3-0.9,6.2,0c0.4,0.2,2.1,1,3.5,3.4c1,1.8,2.8,6.3-1.5,22.8c-1.4,5.3-2.3,7.5-1.7,11.1c0.6,3.7,2.3,6.6,3.7,8.4
	c-0.5-1.8-1.3-5.6,0.1-9.9c0.5-1.6,1.3-3,1.9-4c-0.2,2.1-0.3,7,2.6,12.1c1.7,3,3.7,4.9,5.2,6.1c-0.4-0.8-1-2-1.6-3.4
	c-1.5-4.3-1.4-8-1.3-10.1c0.3-5.3,2.3-14.1,6.7-24.4c1.1,8.4,5.5,14.2,10,14.5c0.9,0.1,2.5-0.1,4.4-1.4
	C927.2,714.9,925.4,714.1,924.5,713.5z M842.1,622c0.1,0.7,0,1.5-0.2,2.4c-0.4-1.4-1.2-3.6-2.8-5.8c-2.2-3-4.9-4.7-6.3-5.4
	C833.4,613.3,841.6,616.2,842.1,622z M809.2,767.4c0.3,6.5,0.9,5.8,0.7,8.6c-0.2,3.5-1.1,4.2-2.4,9.6c-1.7,6.6-0.7,6.4-2,10.5
	c-1.2,3.8-3,6.6-6.6,12.1c-1.7,2.6-3.8,5.6-6.4,8.9c-0.6-2.7-1-6.3,0.4-9.9c1.2-3.2,2.5-2.9,3.5-6.3c0.7-2.2,0.8-4.8,1.2-10.2
	c0.1-1.3,0.1-1.7,0.3-2.5c0.5-2.5,1.5-3.5,2.8-6.3c0.4-0.9,0.7-1.9,1.4-3.8c0.9-2.6,2-6.3,3.5-13c1.4-5.9,2.1-9.8,3.6-10
	c0.1,0,0.6-0.1,0.9,0.3c0.7,0.7-0.2,2.5-0.6,3.3C808.8,760,809,762.4,809.2,767.4z"/>
<path d="M798.7,598.1c0.3-0.8,0.6-1.8,1.3-2.8c0.8-1.4,1.8-2.5,2.5-3.2c-0.8-0.1-1.8-0.2-3-0.2c-1.1,0.1-2,0.3-2.8,0.5
	c-0.8-2-1.9-5-2.3-8.7c-0.9-8.8,2.4-15.7,3.9-18.7c5.8-11.5,14.4-13.2,31.2-27c8.1-6.6,19.3-15.9,28-30.5
	c5.8-9.6,8.7-18.5,10.2-24.4c-1.6,16.2-6.7,27-10.9,33.7c-4.9,7.8-13.7,16.3-31.2,32.8c-12.8,12.2-18.6,16.8-20.3,25.8
	c-1.6,8.1,0.8,15.5,3.2,20.4c-1.5,0.2-3.1,0.4-4.8,0.8C801.8,597.1,800.2,597.6,798.7,598.1z"/>
<path d="M812.7,588.6c0.6-2.2,1.7-5.5,3.8-9.2c3.6-6.5,8.4-10.8,21.4-20.1c14.1-10,12.9-8.1,17.4-12.1c6.7-5.9,14.1-12.7,15.9-23.3
	c1-6.1-0.2-11.3-1.3-14.4c-0.8,3.4-2.4,8.5-5.7,14c-2.2,3.6-5.4,7.9-22,21.8c-9.2,7.7-10.2,8-15,12.6c-10.4,9.9-13,15.2-14.1,19.7
	C812,582.1,812.3,586,812.7,588.6z"/>
<path d="M831.3,602.8c-1.5-0.9-3.4-1.9-5.6-2.7c-2-0.8-3.9-1.2-5.5-1.6c-0.4-2-0.9-5.2-0.2-8.8c2.2-11.2,13.6-17.5,18-20
	c10.4-6,51.7-29.6,72.9-57.1c4.1-5.3,10.1-14.3,15-27.4c-0.6,7.5-2.4,18.7-8.2,30.8c-12.4,26.1-36.4,41.6-46.4,47.9
	c-21.5,13.5-39.9,17.8-41.2,31C829.7,598.1,830.6,601,831.3,602.8z"/>
<path d="M840.1,605.8c-0.4-1.5-0.9-3.8-0.6-6.5c1-9.3,10.3-14.9,33.7-28.6c21.5-12.5,26.4-15.1,32.8-21.6c7-7.1,11.4-14.3,14.1-19.4
	c-0.5,12.4-4.4,20.7-7.6,25.8c-9.7,15.1-27.3,22.3-34.3,25.1c-3.2,1.3-19.3,7.7-26.7,13.3c-4.1,3.1-7.4,6.8-7.4,6.8
	C842.3,602.7,841,604.5,840.1,605.8z"/>
<path d="M848.4,616.9c2.5-2,6.3-4.7,11.5-7c6.5-2.8,10-2.8,18.1-4.8c10.2-2.5,16.2-4,21.3-7.9c3.1-2.4,9.2-8.2,11.6-21.7
	c-2,2.9-5.2,6.8-10.1,10.2c-6.8,4.6-10.6,3.9-23.8,8.4c-10.1,3.4-15.6,5.4-20.8,10.6C851.9,608.9,849.7,613.6,848.4,616.9z"/>
<path d="M854.1,629.1c5.7-2.6,10.4-3.5,13.6-3.9c8-1,10.8,0.9,19.4-0.5c4.5-0.7,8.3-1.4,12.2-4.3c4.9-3.6,7-8.5,7.8-11.1
	c-5.1,4-9.6,5.7-12.6,6.4c-8.5,2.2-13.3-0.6-25.1,2.2c-2.8,0.6-5.4,1.5-8.1,3.3C857.5,623.7,855.3,627,854.1,629.1z"/>
<path d="M857.5,644.6c1.8-0.6,4.8-1.3,8.6-1.3c8.4,0,11.4,3.7,19,2.9c1.7-0.2,5.5-0.6,9.3-3.3c4.5-3.2,6.2-7.8,6.8-9.8
	c-5.5,4-10.3,5.3-13.4,5.8c-9,1.4-14.4-2.4-22.3,0.6C861.6,640.8,859,643.1,857.5,644.6z"/>
<path d="M852.7,655.5c2.2,0,5.7,0.2,9.8,1.2c9.3,2.2,12.2,6.3,18,6.8c3.5,0.3,8.8-0.8,15.7-7.5c-6.1,1.9-10.9,1.8-14.1,1.3
	c-8.9-1.3-13-6.2-20.6-5.3C857.6,652.4,854.6,654.1,852.7,655.5z"/>
<path d="M848.9,664.6c1.9-0.8,4.8-1.6,8.2-1.3c6.1,0.6,8.4,4.6,15.2,6.9c2.5,0.9,6.2,1.7,11.2,1.3c-7.4,4.4-12,4.1-14.8,3.1
	c-3.8-1.4-5.1-4.5-10.7-7.3C854.3,665.5,851,664.9,848.9,664.6z"/>
<g>
	<path d="M375.1,734c0,3.7,0.7,5.1,4.8,5.1v2.4h-33.7v-2.4c4.1,0,4.8-1.4,4.8-5.1V625.3c0-3.7-0.7-5.1-4.8-5.1v-2.4h81.4
		c26.8,0,40.4,13.6,40.4,35.2c0,21.6-10.9,35.2-40.4,35.2h-52.5V734z M375.1,668.1h52.2c12.9,0,16.6-4.1,16.6-15.1
		s-3.7-15.1-16.6-15.1h-52.2L375.1,668.1L375.1,668.1z"/>
	<path d="M575.9,743.6c0-1.5-1.5-2-4.9-2h-93.3v-2.4c2.5,0,3.1-1,3.1-4.1v-90.7c0-3.1-0.5-4.1-3.1-4.1v-2.4h92.1
		c3.6,0,4.9-0.8,4.9-2h2.4v21.7h-2.4c0-1.7-1.4-3.1-4.9-3.1h-68.3v26.2h44.3c3.4,0,4.8-0.8,4.8-2.4h2.4v21.4h-2.4
		c0-1-1.4-2.4-4.8-2.4h-44.3v27.5H571c3.4,0,4.9-0.8,4.9-2.4h2.4v21.1L575.9,743.6L575.9,743.6z"/>
	<path d="M677.3,703.5h-25.1c-2.7,0-4.4,1.7-4.4,3.1h-2.4v-22.3h2.4c0,1.4,1.7,2.5,4.4,2.5h46.7v2.4c-1.4,0.5-1.9,1.2-1.9,3.9v28.4
		c0,1.9,0.5,2.5,1.9,3.2v2.4c-13.4,10.2-33,16.1-53.9,16.1c-35,0-61.5-17-61.5-53.5c0-34.5,27.9-53.5,62.9-53.5
		c13.3,0,23.4,2.2,30.6,4.6c6.8,2.2,11.6,4.6,12.7,4.6c0.7,0,1.4-0.3,2-0.8l2.5,1L682,668.3l-2-1.2c0.2-0.3,0.3-0.8,0.3-2
		c0-2-13.3-12.2-35-12.2c-22.3,0-42.1,13.3-42.1,36.9c0,24.6,19,36.9,44.5,36.9c12.2,0,25.8-3.7,29.6-6.5V703.5z"/>
</g>
<g class="st0">
	<path d="M357,822.3c1.5,0,1.7-0.5,1.7-2v-42.9c0-1.5-0.3-2-1.7-2v-0.9h13.3v0.9c-1.7,0-2,0.5-2,2v37.9h31c1.6,0,2.3-0.5,2.3-1.6
		h0.9v11h-0.9c0-0.9-0.7-1.5-2.3-1.5H357V822.3z"/>
	<path d="M416.4,782.3v0.9c-0.9,0-1.2,0.5-1.2,1.6v24.5c0,6,4.2,7.9,12.6,7.9c8.4,0,12.6-1.9,12.6-7.9v-24.5c0-1.1-0.3-1.6-1.3-1.6
		v-0.9H450v0.9c-1.1,0-1.4,0.5-1.4,1.6v24.3c0,11.4-8.2,14.7-20.8,14.7s-20.8-3.3-20.8-14.7v-24.3c0-1.1-0.2-1.6-1.5-1.6v-0.9H416.4
		z"/>
	<path d="M453.7,823.2v-0.9c1.5,0,2.3-0.9,3.4-2.2l13.7-17.9l-12.9-16.7c-0.7-1-1.5-2.2-3-2.2v-0.9h13.5v0.9c-0.5,0-1.1,0.3-1.1,0.9
		c0,0.3,0.2,1,0.7,1.7l8,10.2l7.9-10.3c0.7-0.8,0.9-1.3,0.9-1.6c0-0.5-0.5-0.9-1-0.9v-0.9h12.9v0.9c-1.3,0-2.1,0.4-3.6,2.2
		l-12.7,16.1l14.2,18.4c1,1.3,1.7,2.1,3.6,2.2v0.9h-13.7v-0.9c0.7,0,1.1-0.1,1.1-0.6s-0.3-0.7-0.7-1.3l-9.4-12.3l-9.2,11.9
		c-0.6,0.8-1.1,1.2-1.1,1.7c0,0.5,0.2,0.7,1.5,0.7v0.9H453.7z"/>
	<path d="M512.7,782.3v0.9c-0.9,0-1.2,0.5-1.2,1.6v24.5c0,6,4.2,7.9,12.6,7.9c8.4,0,12.6-1.9,12.6-7.9v-24.5c0-1.1-0.3-1.6-1.3-1.6
		v-0.9h10.9v0.9c-1.1,0-1.4,0.5-1.4,1.6v24.3c0,11.4-8.2,14.7-20.8,14.7s-20.8-3.3-20.8-14.7v-24.3c0-1.1-0.2-1.6-1.5-1.6v-0.9
		H512.7z"/>
	<path d="M563.2,806.2v14.5c0,1.2,0.2,1.6,1.2,1.6v0.9h-10.8v-0.9c1.2,0,1.4-0.4,1.4-1.6v-35.8c0-1.2-0.2-1.6-1.4-1.6v-0.9h22.8
		c12.2,0,19.2,3.2,19.2,12.5c0,6.2-4.6,10.7-11.4,11.4l10.2,14.5c0.6,0.9,1.5,1.5,2.5,1.5v0.9h-12.2v-0.9c0.2,0,0.5-0.1,0.5-0.4
		c0-0.7-1.1-2.1-1.9-3.2l-8.3-12.5H563.2z M563.2,799.6H580c5.9,0,7.4-1.9,7.4-5.4s-3.1-5.3-8.7-5.3h-15.5V799.6z"/>
	<path d="M613.3,823.2v-0.9c0.9,0,1.1-0.4,1.1-1.6V806l-15.8-20.8c-0.7-1-1.4-1.9-2.1-1.9v-0.9h11.7v0.9c-0.6,0-0.9,0.3-0.9,0.6
		c0,0.5,0.6,1.1,1.3,1.9l10.1,13.4l10.5-14.1c0.3-0.4,0.5-0.7,0.5-1.1c0-0.4-0.4-0.7-1-0.7v-0.9h11.2v0.9c-0.9,0-1.3,0.9-2.1,1.9
		L622.5,806v14.6c0,1.2,0.3,1.6,1.1,1.6v0.9H613.3z"/>
</g>
<g class="st0">
	<path d="M988.2,788.8l-1.1-0.6c0.1-0.3,0.1-0.6,0.1-0.9c0-0.9-6.3-5.6-17.2-5.6c-10.5,0-14.9,3.2-14.9,7.4c0,11,39.5-5.1,39.5,19.2
		c0,8.8-8.6,15.7-25.7,15.7c-16.3,0-21-5.2-22.6-5.2c-0.4,0-0.6,0.3-0.9,0.5l-0.9-0.2l5.6-11.4l1.1,0.5c0,0.3-0.1,0.5-0.1,1.1
		c0,4,8.6,6.8,17.2,6.8c12.2,0,16.3-3.5,16.3-7.2c0-13.1-38.9,3.1-38.9-19.1c0-11.3,11.9-15.9,24.9-15.9c11.7,0,19.8,5.1,20.6,5.1
		c0.9,0,1-0.3,1.2-0.5l1.1,0.3L988.2,788.8z"/>
	<path d="M1037.6,824c0-0.6-0.6-0.8-1.9-0.8h-36.8v-0.9c1,0,1.2-0.4,1.2-1.6v-35.8c0-1.2-0.2-1.6-1.2-1.6v-0.9h36.3
		c1.4,0,1.9-0.3,1.9-0.8h0.9v8.6h-0.9c0-0.7-0.5-1.2-1.9-1.2h-26.9v10.3h17.5c1.3,0,1.9-0.3,1.9-0.9h0.9v8.4h-0.9
		c0-0.4-0.5-0.9-1.9-0.9h-17.5v10.9h27.4c1.3,0,1.9-0.3,1.9-0.9h0.9v8.3H1037.6z"/>
	<path d="M1053.2,806.2v14.5c0,1.2,0.2,1.6,1.2,1.6v0.9h-10.8v-0.9c1.2,0,1.4-0.4,1.4-1.6v-35.8c0-1.2-0.2-1.6-1.4-1.6v-0.9h22.8
		c12.2,0,19.2,3.2,19.2,12.5c0,6.2-4.6,10.7-11.4,11.4l10.2,14.5c0.6,0.9,1.5,1.5,2.5,1.5v0.9h-12.2v-0.9c0.2,0,0.5-0.1,0.5-0.4
		c0-0.7-1.1-2.1-1.9-3.2l-8.3-12.5H1053.2z M1053.2,799.6h16.8c5.9,0,7.4-1.9,7.4-5.4s-3.1-5.3-8.7-5.3h-15.5V799.6z"/>
	<path d="M1133,782.3v0.9c-0.9,0-1.7,0.9-2.1,2l-15.1,34.8c-0.3,0.7-0.5,1-0.5,1.5c0,0.4,0.3,0.6,1.1,0.7v0.9h-11v-0.9
		c0.7,0,0.9-0.3,0.9-0.7c0-0.2-0.3-1-0.6-1.5l-15.9-34.8c-0.4-0.8-0.7-2-2.1-2v-0.9h11.5v0.9c-0.6,0-1.1,0.2-1.1,0.7
		s1.5,3.3,4.2,9.2l9,20l8.7-20c1.8-4.2,3.9-8.6,3.9-9.2c0-0.5-0.5-0.7-1.1-0.7v-0.9H1133z"/>
	<path d="M1145.9,820.7c0,1.2,0.3,1.6,1.7,1.6v0.9h-11.7v-0.9c1.7,0,1.9-0.4,1.9-1.6v-35.8c0-1.2-0.2-1.6-1.9-1.6v-0.9h11.7v0.9
		c-1.4,0-1.7,0.4-1.7,1.6V820.7z"/>
	<path d="M1198.8,816.9l-1.1,0.5c-0.3-0.1-0.6-0.2-0.9-0.2c-1.2,0-4.7,6.6-21.2,6.6c-11.9,0-24-6.7-24-20.8
		c0-12.6,11.1-21.4,26-21.4c10.7,0,17.4,4.4,17.7,4.4c0.4,0,0.5-0.1,0.7-0.3l1.2,0.5l-4.9,9l-1.2-0.6c0.1-0.3,0.3-0.5,0.3-0.9
		c0-1.2-5.8-5.5-14.6-5.5c-8.8,0-17,5.1-17,14.5c0,10.7,8.4,14.5,16.5,14.5c9,0,16.3-4.7,16.3-6.8c0-0.4-0.1-0.7-0.1-0.9l1.1-0.5
		L1198.8,816.9z"/>
	<path d="M1241.2,824c0-0.6-0.6-0.8-1.9-0.8h-36.8v-0.9c1,0,1.2-0.4,1.2-1.6v-35.8c0-1.2-0.2-1.6-1.2-1.6v-0.9h36.3
		c1.4,0,1.9-0.3,1.9-0.8h0.9v8.6h-0.9c0-0.7-0.5-1.2-1.9-1.2h-26.9v10.3h17.5c1.3,0,1.9-0.3,1.9-0.9h0.9v8.4h-0.9
		c0-0.4-0.5-0.9-1.9-0.9h-17.5v10.9h27.4c1.3,0,1.9-0.3,1.9-0.9h0.9v8.3H1241.2z"/>
	<path d="M1281.4,794.5l-0.9-0.6v-0.8c0-1.8-6.9-4.8-14.5-4.8c-7.4,0-12.5,1.7-12.5,5.5c0,10.2,32.8-3.3,32.8,16.7
		c0,8.8-8.4,13.5-21.6,13.5c-6.6,0-10.8-1-13.6-2.1c-2.7-1.1-4-2.1-4.8-2.1c-0.3,0-0.7,0.1-1,0.3l-0.9-0.4l5-9l0.9,0.5
		c0,0.2-0.1,0.5-0.1,0.8c0,2.3,8,5.4,16.3,5.4c8.6,0,12-2.9,12-6.8c0-9.5-32.8,2.1-32.8-14.9c0-7.4,6-13.9,20-13.9
		c5.9,0,9.3,0.9,13.4,2.2c2.7,0.9,4.6,2.2,5,2.2c0.3,0,0.5-0.2,0.7-0.3l0.9,0.3L1281.4,794.5z"/>
</g>
<g class="st0">
	<path d="M1034.4,667.3l-2.4-1.5v-2.1c0-4.6-17.7-12.4-37.2-12.4c-18.9,0-32,4.5-32,14.1c0,26.1,84.3-8.4,84.3,42.8
		c0,22.7-21.7,34.6-55.4,34.6c-17,0-27.7-2.6-34.9-5.3c-7.1-2.8-10.3-5.3-12.4-5.3c-0.7,0-1.7,0.2-2.6,0.7l-2.2-1l12.7-23l2.2,1.4
		c0,0.5-0.2,1.2-0.2,2.1c0,6,20.5,13.8,42,13.8c22,0,30.8-7.4,30.8-17.4c0-24.4-84.3,5.3-84.3-38.4c0-18.9,15.3-35.8,51.3-35.8
		c15.1,0,23.9,2.2,34.4,5.7c6.9,2.2,11.9,5.7,12.9,5.7c0.7,0,1.4-0.5,1.9-0.9l2.4,0.9L1034.4,667.3z"/>
	<path d="M1081.7,636.2v2.4c-2.4,0-3.1,1.2-3.1,4.1v63c0,15.3,10.7,20.3,32.3,20.3s32.3-5,32.3-20.3v-63c0-2.9-0.7-4.1-3.4-4.1v-2.4
		h28v2.4c-2.9,0-3.6,1.2-3.6,4.1V705c0,29.2-21,37.8-53.3,37.8c-32.3,0-53.3-8.6-53.3-37.8v-62.3c0-2.9-0.5-4.1-4-4.1v-2.4H1081.7z"
		/>
	<path d="M1268.2,667.3l-2.4-1.5v-2.1c0-4.6-17.7-12.4-37.2-12.4c-18.9,0-32,4.5-32,14.1c0,26.1,84.3-8.4,84.3,42.8
		c0,22.7-21.7,34.6-55.4,34.6c-17,0-27.7-2.6-34.9-5.3c-7.1-2.8-10.3-5.3-12.4-5.3c-0.7,0-1.7,0.2-2.6,0.7l-2.2-1l12.7-23l2.2,1.4
		c0,0.5-0.2,1.2-0.2,2.1c0,6,20.5,13.8,42,13.8c22,0,30.8-7.4,30.8-17.4c0-24.4-84.3,5.3-84.3-38.4c0-18.9,15.3-35.8,51.3-35.8
		c15.1,0,23.9,2.2,34.4,5.7c6.9,2.2,11.9,5.7,12.9,5.7c0.7,0,1.4-0.5,1.9-0.9l2.4,0.9L1268.2,667.3z"/>
</g>
</svg>
